<?xml version="1.0" encoding="UTF-8" standalone="no"?><svg xmlns="http://www.w3.org/2000/svg" xmlns:xlink="http://www.w3.org/1999/xlink" contentScriptType="application/ecmascript" contentStyleType="text/css" height="290px" preserveAspectRatio="none" style="width:633px;height:290px;" version="1.1" viewBox="0 0 633 290" width="633px" zoomAndPan="magnify"><defs><filter height="300%" id="f129qj95nx6cei" width="300%" x="-1" y="-1"><feGaussianBlur result="blurOut" stdDeviation="2.0"/><feColorMatrix in="blurOut" result="blurOut2" type="matrix" values="0 0 0 0 0 0 0 0 0 0 0 0 0 0 0 0 0 0 .4 0"/><feOffset dx="4.0" dy="4.0" in="blurOut2" result="blurOut3"/><feBlend in="SourceGraphic" in2="blurOut3" mode="normal"/></filter></defs><g><text fill="#000000" font-family="sans-serif" font-size="18" lengthAdjust="spacingAndGlyphs" textLength="247" x="204.5" y="18.6855">Diagramme de Composants V1</text><!--cluster Front_End--><polygon fill="#FFFFFF" filter="url(#f129qj95nx6cei)" points="189.5,56.6406,199.5,46.6406,338.5,46.6406,338.5,131.6406,328.5,141.6406,189.5,141.6406,189.5,56.6406" style="stroke: #000000; stroke-width: 1.5;"/><line style="stroke: #000000; stroke-width: 1.5;" x1="328.5" x2="337.5" y1="56.6406" y2="47.6406"/><line style="stroke: #000000; stroke-width: 1.5;" x1="189.5" x2="328.5" y1="56.6406" y2="56.6406"/><line style="stroke: #000000; stroke-width: 1.5;" x1="328.5" x2="328.5" y1="56.6406" y2="141.6406"/><text fill="#000000" font-family="sans-serif" font-size="14" font-weight="bold" lengthAdjust="spacingAndGlyphs" textLength="73" x="223.5" y="74.1738">Front_End</text><!--cluster Back_End--><polygon fill="#FFFFFF" filter="url(#f129qj95nx6cei)" points="362.5,56.6406,372.5,46.6406,507.5,46.6406,507.5,268.6406,497.5,278.6406,362.5,278.6406,362.5,56.6406" style="stroke: #000000; stroke-width: 1.5;"/><line style="stroke: #000000; stroke-width: 1.5;" x1="497.5" x2="506.5" y1="56.6406" y2="47.6406"/><line style="stroke: #000000; stroke-width: 1.5;" x1="362.5" x2="497.5" y1="56.6406" y2="56.6406"/><line style="stroke: #000000; stroke-width: 1.5;" x1="497.5" x2="497.5" y1="56.6406" y2="278.6406"/><text fill="#000000" font-family="sans-serif" font-size="14" font-weight="bold" lengthAdjust="spacingAndGlyphs" textLength="69" x="396.5" y="74.1738">Back_End</text><!--cluster MySql--><path d="M531.5,183.6406 C531.5,173.6406 576.5,173.6406 576.5,173.6406 C576.5,173.6406 621.5,173.6406 621.5,183.6406 L621.5,268.6406 C621.5,278.6406 576.5,278.6406 576.5,278.6406 C576.5,278.6406 531.5,278.6406 531.5,268.6406 L531.5,183.6406 " fill="#FFFFFF" filter="url(#f129qj95nx6cei)" style="stroke: #000000; stroke-width: 1.5;"/><path d="M531.5,183.6406 C531.5,193.6406 576.5,193.6406 576.5,193.6406 C576.5,193.6406 621.5,193.6406 621.5,183.6406 " fill="none" style="stroke: #000000; stroke-width: 1.5;"/><text fill="#000000" font-family="sans-serif" font-size="14" font-weight="bold" lengthAdjust="spacingAndGlyphs" textLength="42" x="555.5" y="210.1738">MySql</text><!--entity Angular--><rect fill="#FEFECE" filter="url(#f129qj95nx6cei)" height="37.6094" style="stroke: #A80036; stroke-width: 1.5;" width="69" x="230" y="87.6406"/><rect fill="#FEFECE" height="5" style="stroke: #A80036; stroke-width: 1.5;" width="10" x="225" y="92.6406"/><rect fill="#FEFECE" height="5" style="stroke: #A80036; stroke-width: 1.5;" width="10" x="225" y="115.25"/><text fill="#000000" font-family="sans-serif" font-size="14" lengthAdjust="spacingAndGlyphs" textLength="49" x="240" y="112.1738">Angular</text><!--entity RestApi--><rect fill="#FEFECE" filter="url(#f129qj95nx6cei)" height="37.6094" style="stroke: #A80036; stroke-width: 1.5;" width="69" x="395" y="87.6406"/><rect fill="#FEFECE" height="5" style="stroke: #A80036; stroke-width: 1.5;" width="10" x="390" y="92.6406"/><rect fill="#FEFECE" height="5" style="stroke: #A80036; stroke-width: 1.5;" width="10" x="390" y="115.25"/><text fill="#000000" font-family="sans-serif" font-size="14" lengthAdjust="spacingAndGlyphs" textLength="49" x="405" y="112.1738">RestApi</text><!--entity Springboot--><rect fill="#FEFECE" filter="url(#f129qj95nx6cei)" height="37.6094" style="stroke: #A80036; stroke-width: 1.5;" width="89" x="390" y="224.6406"/><rect fill="#FEFECE" height="5" style="stroke: #A80036; stroke-width: 1.5;" width="10" x="385" y="229.6406"/><rect fill="#FEFECE" height="5" style="stroke: #A80036; stroke-width: 1.5;" width="10" x="385" y="252.25"/><text fill="#000000" font-family="sans-serif" font-size="14" lengthAdjust="spacingAndGlyphs" textLength="69" x="400" y="249.1738">Springboot</text><!--entity MySql--><rect fill="#FEFECE" filter="url(#f129qj95nx6cei)" height="37.6094" style="stroke: #A80036; stroke-width: 1.5;" width="58" x="547.5" y="224.6406"/><rect fill="#FEFECE" height="5" style="stroke: #A80036; stroke-width: 1.5;" width="10" x="542.5" y="229.6406"/><rect fill="#FEFECE" height="5" style="stroke: #A80036; stroke-width: 1.5;" width="10" x="542.5" y="252.25"/><text fill="#000000" font-family="sans-serif" font-size="14" lengthAdjust="spacingAndGlyphs" textLength="38" x="557.5" y="249.1738">MySql</text><!--entity User--><ellipse cx="36.5" cy="83.25" fill="#FEFECE" filter="url(#f129qj95nx6cei)" rx="8" ry="8" style="stroke: #A80036; stroke-width: 2.0;"/><path d="M36.5,91.25 L36.5,118.25 M23.5,99.25 L49.5,99.25 M36.5,118.25 L23.5,133.25 M36.5,118.25 L49.5,133.25 " fill="none" filter="url(#f129qj95nx6cei)" style="stroke: #A80036; stroke-width: 2.0;"/><text fill="#000000" font-family="sans-serif" font-size="14" lengthAdjust="spacingAndGlyphs" textLength="29" x="22" y="154.7832">User</text><text fill="#000000" font-family="sans-serif" font-size="14" font-style="italic" lengthAdjust="spacingAndGlyphs" textLength="61" x="6" y="70.1738">«Human»</text><!--entity Browser--><rect fill="#FEFECE" filter="url(#f129qj95nx6cei)" height="37.6094" style="stroke: #A80036; stroke-width: 1.5;" width="71" x="102" y="87.6406"/><rect fill="#FEFECE" height="5" style="stroke: #A80036; stroke-width: 1.5;" width="10" x="97" y="92.6406"/><rect fill="#FEFECE" height="5" style="stroke: #A80036; stroke-width: 1.5;" width="10" x="97" y="115.25"/><text fill="#000000" font-family="sans-serif" font-size="14" lengthAdjust="spacingAndGlyphs" textLength="51" x="112" y="112.1738">Browser</text><!--link User to Browser--><path d="M72.4041,106.6406 C80.5291,106.6406 88.6541,106.6406 96.7791,106.6406 " fill="none" id="User-Browser" style="stroke: #A80036; stroke-width: 1.0;"/><polygon fill="#A80036" points="101.8381,106.6406,92.8381,102.6406,96.8381,106.6406,92.8381,110.6406,101.8381,106.6406" style="stroke: #A80036; stroke-width: 1.0;"/><polygon fill="#A80036" points="67.2734,106.6406,76.2734,110.6406,72.2734,106.6406,76.2734,102.6406,67.2734,106.6406" style="stroke: #A80036; stroke-width: 1.0;"/><!--link Browser to Angular--><path d="M178.534,106.6406 C193.921,106.6406 209.308,106.6406 224.695,106.6406 " fill="none" id="Browser-Angular" style="stroke: #A80036; stroke-width: 1.0;"/><polygon fill="#A80036" points="229.913,106.6406,220.913,102.6406,224.913,106.6406,220.913,110.6406,229.913,106.6406" style="stroke: #A80036; stroke-width: 1.0;"/><polygon fill="#A80036" points="173.219,106.6406,182.219,110.6406,178.219,106.6406,182.219,102.6406,173.219,106.6406" style="stroke: #A80036; stroke-width: 1.0;"/><!--link Angular to RestApi--><path d="M304.533,106.6406 C332.896,106.6406 361.258,106.6406 389.621,106.6406 " fill="none" id="Angular-RestApi" style="stroke: #A80036; stroke-width: 1.0;"/><polygon fill="#A80036" points="394.917,106.6406,385.917,102.6406,389.917,106.6406,385.917,110.6406,394.917,106.6406" style="stroke: #A80036; stroke-width: 1.0;"/><polygon fill="#A80036" points="299.305,106.6406,308.305,110.6406,304.305,106.6406,308.305,102.6406,299.305,106.6406" style="stroke: #A80036; stroke-width: 1.0;"/><!--link RestApi to Springboot--><path d="M430.362,130.9146 C431.277,155.6276 432.716,194.4666 433.633,219.2306 " fill="none" id="RestApi-Springboot" style="stroke: #A80036; stroke-width: 1.0;"/><polygon fill="#A80036" points="433.82,224.2912,437.484,215.1493,433.6349,219.2947,429.4895,215.4455,433.82,224.2912" style="stroke: #A80036; stroke-width: 1.0;"/><polygon fill="#A80036" points="430.174,125.8476,426.5111,134.99,430.3597,130.8442,434.5056,134.6928,430.174,125.8476" style="stroke: #A80036; stroke-width: 1.0;"/><!--link Springboot to MySql--><path d="M484.204,243.6406 C503.404,243.6406 522.604,243.6406 541.804,243.6406 " fill="none" id="Springboot-MySql" style="stroke: #A80036; stroke-width: 1.0;"/><polygon fill="#A80036" points="547.22,243.6406,538.22,239.6406,542.22,243.6406,538.22,247.6406,547.22,243.6406" style="stroke: #A80036; stroke-width: 1.0;"/><polygon fill="#A80036" points="479.152,243.6406,488.152,247.6406,484.152,243.6406,488.152,239.6406,479.152,243.6406" style="stroke: #A80036; stroke-width: 1.0;"/><!--
@startuml

title Diagramme de Composants V1

User << Human >>
User <-> [Browser]

node "Front_End" {

    [Browser] <-> [Angular]
}

node "Back_End" {
    [Angular] <->     [RestApi]
  [RestApi] <- ->  [Springboot]
}
database "MySql" {
    [Springboot] <-> [MySql]
}
@enduml

PlantUML version 1.2019.09(Mon Aug 26 18:19:51 CEST 2019)
(GPL source distribution)
Java Runtime: OpenJDK Runtime Environment
JVM: OpenJDK 64-Bit Server VM
Java Version: 13.0.1+9
Operating System: Windows 10
OS Version: 10.0
Default Encoding: Cp1252
Language: fr
Country: FR
--></g></svg>