<?xml version="1.0" encoding="UTF-8" standalone="no"?><svg xmlns="http://www.w3.org/2000/svg" xmlns:xlink="http://www.w3.org/1999/xlink" contentScriptType="application/ecmascript" contentStyleType="text/css" height="1641.3934px" preserveAspectRatio="none" style="width:744px;height:1641px;" version="1.1" viewBox="0 0 744 1641" width="744.6209px" zoomAndPan="magnify"><defs><linearGradient id="gd0v6dyo3zhu70" x1="50%" x2="50%" y1="0%" y2="100%"><stop offset="0%" stop-color="#00FFFF"/><stop offset="100%" stop-color="#5F9EA0"/></linearGradient><linearGradient id="gd0v6dyo3zhu71" x1="50%" x2="50%" y1="0%" y2="100%"><stop offset="0%" stop-color="#FFFFE0"/><stop offset="100%" stop-color="#FFFFFF"/></linearGradient><linearGradient id="gd0v6dyo3zhu72" x1="50%" x2="50%" y1="0%" y2="100%"><stop offset="0%" stop-color="#808080"/><stop offset="100%" stop-color="#C0C0C0"/></linearGradient><filter height="300%" id="fd0v6dyo3zhu7" width="300%" x="-1" y="-1"><feGaussianBlur result="blurOut" stdDeviation="1.5368852459016393"/><feColorMatrix in="blurOut" result="blurOut2" type="matrix" values="0 0 0 0 0 0 0 0 0 0 0 0 0 0 0 0 0 0 .4 0"/><feOffset dx="3.0737704918032787" dy="3.0737704918032787" in="blurOut2" result="blurOut3"/><feBlend in="SourceGraphic" in2="blurOut3" mode="normal"/></filter><linearGradient id="gd0v6dyo3zhu73" x1="50%" x2="50%" y1="0%" y2="100%"><stop offset="0%" stop-color="#FFFFE0"/><stop offset="100%" stop-color="#FFA500"/></linearGradient></defs><g><rect fill="url(#gd0v6dyo3zhu70)" height="25.0824" rx="38.4221" ry="38.4221" style="stroke: url(#gd0v6dyo3zhu70); stroke-width: 1.5368852459016393;" width="131.4037" x="308.9139" y="1.5369"/><text fill="#000000" font-family="sans-serif" font-size="13.832" lengthAdjust="spacingAndGlyphs" textLength="119.1086" x="315.0615" y="19.7379">On Va Geeker V4.0</text><!--class EntityBase--><rect fill="url(#gd0v6dyo3zhu71)" filter="url(#fd0v6dyo3zhu7)" height="79.4137" id="EntityBase" rx="5.7633" ry="5.7633" style="stroke: url(#gd0v6dyo3zhu72); stroke-width: 1.1526639344262295;" width="125.2561" x="610.9119" y="91.5527"/><ellipse cx="647.9892" cy="103.8478" fill="#A9DCDF" rx="8.4529" ry="8.4529" style="stroke: url(#gd0v6dyo3zhu72); stroke-width: 0.7684426229508197;"/><path d="M649.6702,105.2046 L646.4884,105.2046 L646.1642,105.9971 L646.4884,105.9971 Q646.9566,105.9971 647.1608,106.1772 Q647.3649,106.3573 647.3649,106.6574 Q647.3649,106.9456 647.1608,107.1257 Q646.9566,107.3058 646.4884,107.3058 L644.7234,107.3058 Q644.2551,107.3058 644.063,107.1257 Q643.8589,106.9456 643.8589,106.6454 Q643.8589,106.3573 644.075,106.1772 Q644.2791,105.985 644.7594,105.9971 L646.8126,100.8821 L645.9601,100.8821 Q645.4918,100.8821 645.2877,100.702 Q645.0836,100.5219 645.0836,100.2217 Q645.0836,99.9336 645.2877,99.7535 Q645.4918,99.5734 645.9601,99.5734 L648.7817,99.5734 L651.3872,105.9971 Q651.8435,105.9971 651.9875,106.1051 Q652.2877,106.3092 652.2877,106.6574 Q652.2877,106.9456 652.0836,107.1257 Q651.8915,107.3058 651.4232,107.3058 L649.6582,107.3058 Q649.1899,107.3058 648.9858,107.1257 Q648.7817,106.9456 648.7817,106.6454 Q648.7817,106.3573 648.9858,106.1772 Q649.1899,105.9971 649.6582,105.9971 L649.9824,105.9971 L649.6702,105.2046 Z M649.1179,103.8958 L648.0733,101.3024 L647.0167,103.8958 L649.1179,103.8958 Z "/><text fill="#000000" font-family="sans-serif" font-size="9.2213" font-style="italic" lengthAdjust="spacingAndGlyphs" textLength="44.5697" x="663.7423" y="107.621">EntityBase</text><line style="stroke: #808080; stroke-width: 1.1526639344262295;" x1="611.6803" x2="735.3996" y1="116.1429" y2="116.1429"/><rect fill="none" height="4.6107" style="stroke: #C82930; stroke-width: 0.7684426229508197;" width="4.6107" x="617.0594" y="122.2904"/><text fill="#000000" font-family="sans-serif" font-size="8.4529" lengthAdjust="spacingAndGlyphs" textLength="37.6537" x="626.2807" y="127.9915">id: int {PK}</text><rect fill="none" height="4.6107" style="stroke: #C82930; stroke-width: 0.7684426229508197;" width="4.6107" x="617.0594" y="132.9226"/><text fill="#000000" font-family="sans-serif" font-size="8.4529" lengthAdjust="spacingAndGlyphs" textLength="103.7398" x="626.2807" y="138.6236">createdAt: DateTime = NOW</text><rect fill="none" height="4.6107" style="stroke: #C82930; stroke-width: 0.7684426229508197;" width="4.6107" x="617.0594" y="143.5547"/><text fill="#000000" font-family="sans-serif" font-size="8.4529" lengthAdjust="spacingAndGlyphs" textLength="105.2766" x="626.2807" y="149.2557">updatedAt: DateTime = NOW</text><rect fill="none" height="4.6107" style="stroke: #C82930; stroke-width: 0.7684426229508197;" width="4.6107" x="617.0594" y="154.1868"/><text fill="#000000" font-family="sans-serif" font-size="8.4529" lengthAdjust="spacingAndGlyphs" textLength="56.8648" x="626.2807" y="159.8878">enable:Boolean</text><line style="stroke: #808080; stroke-width: 1.1526639344262295;" x1="611.6803" x2="735.3996" y1="164.8189" y2="164.8189"/><!--class Event--><rect fill="url(#gd0v6dyo3zhu73)" filter="url(#fd0v6dyo3zhu7)" height="128.2339" id="Event" rx="5.7633" ry="5.7633" style="stroke: url(#gd0v6dyo3zhu72); stroke-width: 1.1526639344262295;" width="122.1824" x="405.7377" y="878.8222"/><text fill="#000000" font-family="sans-serif" font-size="9.2213" font-style="italic" lengthAdjust="spacingAndGlyphs" textLength="33.043" x="450.3074" y="892.2369">«entity»</text><text fill="#000000" font-family="sans-serif" font-size="9.2213" lengthAdjust="spacingAndGlyphs" textLength="23.0533" x="455.3023" y="903.8356">Event</text><line style="stroke: #808080; stroke-width: 1.1526639344262295;" x1="406.5061" x2="527.1516" y1="909.704" y2="909.704"/><rect fill="none" height="4.6107" style="stroke: #C82930; stroke-width: 0.7684426229508197;" width="4.6107" x="411.8852" y="915.8515"/><text fill="#000000" font-family="sans-serif" font-size="8.4529" font-weight="bold" lengthAdjust="spacingAndGlyphs" textLength="16.1373" x="421.1066" y="921.5526">title</text><text fill="#000000" font-family="sans-serif" font-size="8.4529" lengthAdjust="spacingAndGlyphs" textLength="53.791" x="437.2439" y="921.5526">:String Not Null</text><rect fill="none" height="4.6107" style="stroke: #C82930; stroke-width: 0.7684426229508197;" width="4.6107" x="411.8852" y="926.4837"/><text fill="#000000" font-family="sans-serif" font-size="8.4529" font-weight="bold" lengthAdjust="spacingAndGlyphs" textLength="48.4119" x="421.1066" y="932.1847">description</text><text fill="#000000" font-family="sans-serif" font-size="8.4529" lengthAdjust="spacingAndGlyphs" textLength="53.791" x="469.5184" y="932.1847">:String Not Null</text><rect fill="none" height="4.6107" style="stroke: #C82930; stroke-width: 0.7684426229508197;" width="4.6107" x="411.8852" y="937.1158"/><text fill="#000000" font-family="sans-serif" font-size="8.4529" font-weight="bold" lengthAdjust="spacingAndGlyphs" textLength="25.3586" x="421.1066" y="942.8168">dueAt</text><text fill="#000000" font-family="sans-serif" font-size="8.4529" lengthAdjust="spacingAndGlyphs" textLength="49.1803" x="446.4652" y="942.8168">:Date Not Null</text><rect fill="none" height="4.6107" style="stroke: #C82930; stroke-width: 0.7684426229508197;" width="4.6107" x="411.8852" y="947.7479"/><text fill="#000000" font-family="sans-serif" font-size="8.4529" font-weight="bold" lengthAdjust="spacingAndGlyphs" textLength="33.043" x="421.1066" y="953.4489">nbPlace</text><text fill="#000000" font-family="sans-serif" font-size="8.4529" lengthAdjust="spacingAndGlyphs" textLength="57.6332" x="454.1496" y="953.4489">:Integer Not Null</text><rect fill="none" height="4.6107" style="stroke: #C82930; stroke-width: 0.7684426229508197;" width="4.6107" x="411.8852" y="958.38"/><text fill="#000000" font-family="sans-serif" font-size="8.4529" lengthAdjust="spacingAndGlyphs" textLength="44.5697" x="421.1066" y="964.0811">photo:String</text><rect fill="none" height="4.6107" style="stroke: #C82930; stroke-width: 0.7684426229508197;" width="4.6107" x="411.8852" y="969.0122"/><text fill="#000000" font-family="sans-serif" font-size="8.4529" lengthAdjust="spacingAndGlyphs" textLength="49.9488" x="421.1066" y="974.7132">adress:String</text><rect fill="none" height="4.6107" style="stroke: #C82930; stroke-width: 0.7684426229508197;" width="4.6107" x="411.8852" y="979.6443"/><text fill="#000000" font-family="sans-serif" font-size="8.4529" lengthAdjust="spacingAndGlyphs" textLength="37.6537" x="421.1066" y="985.3453">Cp:Integer</text><rect fill="none" height="4.6107" style="stroke: #C82930; stroke-width: 0.7684426229508197;" width="4.6107" x="411.8852" y="990.2764"/><text fill="#000000" font-family="sans-serif" font-size="8.4529" font-weight="bold" lengthAdjust="spacingAndGlyphs" textLength="14.6004" x="421.1066" y="995.9774">city</text><text fill="#000000" font-family="sans-serif" font-size="8.4529" lengthAdjust="spacingAndGlyphs" textLength="53.791" x="435.707" y="995.9774">:String Not Null</text><line style="stroke: #808080; stroke-width: 1.1526639344262295;" x1="406.5061" x2="527.1516" y1="1000.9085" y2="1000.9085"/><!--class User--><rect fill="url(#gd0v6dyo3zhu73)" filter="url(#fd0v6dyo3zhu7)" height="192.0266" id="User" rx="5.7633" ry="5.7633" style="stroke: url(#gd0v6dyo3zhu72); stroke-width: 1.1526639344262295;" width="145.2357" x="296.6189" y="35.0722"/><text fill="#000000" font-family="sans-serif" font-size="9.2213" font-style="italic" lengthAdjust="spacingAndGlyphs" textLength="33.043" x="352.7152" y="48.4869">«entity»</text><text fill="#000000" font-family="sans-serif" font-size="9.2213" lengthAdjust="spacingAndGlyphs" textLength="20.748" x="358.8627" y="60.0856">User</text><line style="stroke: #808080; stroke-width: 1.1526639344262295;" x1="297.3873" x2="441.0861" y1="65.954" y2="65.954"/><rect fill="none" height="4.6107" style="stroke: #C82930; stroke-width: 0.7684426229508197;" width="4.6107" x="302.7664" y="72.1015"/><text fill="#000000" font-family="sans-serif" font-size="8.4529" font-weight="bold" lengthAdjust="spacingAndGlyphs" textLength="43.8012" x="311.9877" y="77.8026">username</text><text fill="#000000" font-family="sans-serif" font-size="8.4529" lengthAdjust="spacingAndGlyphs" textLength="81.4549" x="355.7889" y="77.8026">:String Unique Not Null</text><rect fill="none" height="4.6107" style="stroke: #C82930; stroke-width: 0.7684426229508197;" width="4.6107" x="302.7664" y="82.7337"/><text fill="#000000" font-family="sans-serif" font-size="8.4529" font-weight="bold" lengthAdjust="spacingAndGlyphs" textLength="43.0328" x="311.9877" y="88.4347">password</text><text fill="#000000" font-family="sans-serif" font-size="8.4529" lengthAdjust="spacingAndGlyphs" textLength="53.791" x="355.0205" y="88.4347">:String Not Null</text><rect fill="none" height="4.6107" style="stroke: #C82930; stroke-width: 0.7684426229508197;" width="4.6107" x="302.7664" y="93.3658"/><text fill="#000000" font-family="sans-serif" font-size="8.4529" lengthAdjust="spacingAndGlyphs" textLength="43.8012" x="311.9877" y="99.0668">name:String</text><rect fill="none" height="4.6107" style="stroke: #C82930; stroke-width: 0.7684426229508197;" width="4.6107" x="302.7664" y="103.9979"/><text fill="#000000" font-family="sans-serif" font-size="8.4529" lengthAdjust="spacingAndGlyphs" textLength="42.2643" x="311.9877" y="109.6989">email:String</text><rect fill="none" height="4.6107" style="stroke: #C82930; stroke-width: 0.7684426229508197;" width="4.6107" x="302.7664" y="114.63"/><text fill="#000000" font-family="sans-serif" font-size="8.4529" lengthAdjust="spacingAndGlyphs" textLength="33.043" x="311.9877" y="120.3311">sex:Byte</text><rect fill="none" height="4.6107" style="stroke: #C82930; stroke-width: 0.7684426229508197;" width="4.6107" x="302.7664" y="125.2622"/><text fill="#000000" font-family="sans-serif" font-size="8.4529" lengthAdjust="spacingAndGlyphs" textLength="49.1803" x="311.9877" y="130.9632">picture:String</text><rect fill="none" height="4.6107" style="stroke: #C82930; stroke-width: 0.7684426229508197;" width="4.6107" x="302.7664" y="135.8943"/><text fill="#000000" font-family="sans-serif" font-size="8.4529" lengthAdjust="spacingAndGlyphs" textLength="71.4652" x="311.9877" y="141.5953">maritalStatus:String</text><rect fill="none" height="4.6107" style="stroke: #C82930; stroke-width: 0.7684426229508197;" width="4.6107" x="302.7664" y="146.5264"/><text fill="#000000" font-family="sans-serif" font-size="8.4529" lengthAdjust="spacingAndGlyphs" textLength="72.2336" x="311.9877" y="152.2274">birthDate:LocalDate</text><rect fill="none" height="4.6107" style="stroke: #C82930; stroke-width: 0.7684426229508197;" width="4.6107" x="302.7664" y="157.1585"/><text fill="#000000" font-family="sans-serif" font-size="8.4529" font-weight="bold" lengthAdjust="spacingAndGlyphs" textLength="14.6004" x="311.9877" y="162.8596">city</text><text fill="#000000" font-family="sans-serif" font-size="8.4529" lengthAdjust="spacingAndGlyphs" textLength="64.5492" x="326.5881" y="162.8596">:String NOT NULL</text><rect fill="none" height="4.6107" style="stroke: #C82930; stroke-width: 0.7684426229508197;" width="4.6107" x="302.7664" y="167.7906"/><text fill="#000000" font-family="sans-serif" font-size="8.4529" lengthAdjust="spacingAndGlyphs" textLength="64.5492" x="311.9877" y="173.4917">description:String</text><rect fill="none" height="4.6107" style="stroke: #C82930; stroke-width: 0.7684426229508197;" width="4.6107" x="302.7664" y="178.4228"/><text fill="#000000" font-family="sans-serif" font-size="8.4529" lengthAdjust="spacingAndGlyphs" textLength="101.4344" x="311.9877" y="184.1238">subscriptionDate:LocalDate</text><rect fill="none" height="4.6107" style="stroke: #C82930; stroke-width: 0.7684426229508197;" width="4.6107" x="302.7664" y="189.0549"/><text fill="#000000" font-family="sans-serif" font-size="8.4529" lengthAdjust="spacingAndGlyphs" textLength="110.6557" x="311.9877" y="194.7559">lastConnectionDate:LocalDate</text><rect fill="none" height="4.6107" style="stroke: #C82930; stroke-width: 0.7684426229508197;" width="4.6107" x="302.7664" y="199.687"/><text fill="#000000" font-family="sans-serif" font-size="8.4529" lengthAdjust="spacingAndGlyphs" textLength="63.7807" x="311.9877" y="205.3881">profession:String</text><rect fill="none" height="4.6107" style="stroke: #C82930; stroke-width: 0.7684426229508197;" width="4.6107" x="302.7664" y="210.3191"/><text fill="#000000" font-family="sans-serif" font-size="8.4529" lengthAdjust="spacingAndGlyphs" textLength="37.6537" x="311.9877" y="216.0202">role:String</text><line style="stroke: #808080; stroke-width: 1.1526639344262295;" x1="297.3873" x2="441.0861" y1="220.9513" y2="220.9513"/><path d="M4.6107,126.9011 L4.6107,135.6241 A5.7633,5.7633 0 0 0 10.374,141.3874 L263.96,141.3874 A5.7633,5.7633 0 0 0 269.7234,135.6241 L269.7234,134.9697 L296.562,131.1275 L269.7234,128.8222 L269.7234,128.8222 L262.0389,121.1378 L10.374,121.1378 A5.7633,5.7633 0 0 0 4.6107,126.9011 " fill="#FBFB77" filter="url(#fd0v6dyo3zhu7)" style="stroke: #A80036; stroke-width: 0.7684426229508197;"/><path d="M262.0389,121.1378 L262.0389,125.9405 A2.8817,2.8817 0 0 0 264.9206,128.8222 L269.7234,128.8222 L262.0389,121.1378 " fill="#FBFB77" style="stroke: #A80036; stroke-width: 0.7684426229508197;"/><ellipse cx="13.4477" cy="131.7819" fill="#000000" rx="1.9211" ry="1.9211" style="stroke: #000000; stroke-width: 0.0;"/><text fill="#000000" font-family="sans-serif" font-size="9.9898" lengthAdjust="spacingAndGlyphs" textLength="238.9857" x="19.2111" y="135.3502">La description contient au maximum 5 000 caractères</text><!--class Hobbie--><rect fill="url(#gd0v6dyo3zhu73)" filter="url(#fd0v6dyo3zhu7)" height="64.4411" id="Hobbie" rx="5.7633" ry="5.7633" style="stroke: url(#gd0v6dyo3zhu72); stroke-width: 1.1526639344262295;" width="118.3402" x="134.0932" y="910.7126"/><text fill="#000000" font-family="sans-serif" font-size="9.2213" font-style="italic" lengthAdjust="spacingAndGlyphs" textLength="33.043" x="176.7418" y="924.1273">«entity»</text><text fill="#000000" font-family="sans-serif" font-size="9.2213" lengthAdjust="spacingAndGlyphs" textLength="30.7377" x="177.8945" y="935.726">Hobbie</text><line style="stroke: #808080; stroke-width: 1.1526639344262295;" x1="134.8617" x2="251.665" y1="941.5944" y2="941.5944"/><rect fill="none" height="4.6107" style="stroke: #C82930; stroke-width: 0.7684426229508197;" width="4.6107" x="140.2408" y="947.7419"/><text fill="#000000" font-family="sans-serif" font-size="8.4529" lengthAdjust="spacingAndGlyphs" textLength="76.0758" x="149.4621" y="953.4429">id:int auto_increment</text><rect fill="none" height="4.6107" style="stroke: #C82930; stroke-width: 0.7684426229508197;" width="4.6107" x="140.2408" y="958.374"/><text fill="#000000" font-family="sans-serif" font-size="8.4529" lengthAdjust="spacingAndGlyphs" textLength="98.3607" x="149.4621" y="964.0751">label:String Unique Not Null</text><line style="stroke: #808080; stroke-width: 1.1526639344262295;" x1="134.8617" x2="251.665" y1="969.0061" y2="969.0061"/><!--class Language--><rect fill="url(#gd0v6dyo3zhu73)" filter="url(#fd0v6dyo3zhu7)" height="64.4411" id="Language" rx="5.7633" ry="5.7633" style="stroke: url(#gd0v6dyo3zhu72); stroke-width: 1.1526639344262295;" width="118.3402" x="34.1957" y="719.7546"/><text fill="#000000" font-family="sans-serif" font-size="9.2213" font-style="italic" lengthAdjust="spacingAndGlyphs" textLength="33.043" x="76.8443" y="733.1693">«entity»</text><text fill="#000000" font-family="sans-serif" font-size="9.2213" lengthAdjust="spacingAndGlyphs" textLength="43.0328" x="71.8494" y="744.768">Language</text><line style="stroke: #808080; stroke-width: 1.1526639344262295;" x1="34.9641" x2="151.7674" y1="750.6364" y2="750.6364"/><rect fill="none" height="4.6107" style="stroke: #C82930; stroke-width: 0.7684426229508197;" width="4.6107" x="40.3432" y="756.7839"/><text fill="#000000" font-family="sans-serif" font-size="8.4529" lengthAdjust="spacingAndGlyphs" textLength="76.0758" x="49.5645" y="762.4849">id:int auto_increment</text><rect fill="none" height="4.6107" style="stroke: #C82930; stroke-width: 0.7684426229508197;" width="4.6107" x="40.3432" y="767.416"/><text fill="#000000" font-family="sans-serif" font-size="8.4529" lengthAdjust="spacingAndGlyphs" textLength="98.3607" x="49.5645" y="773.1171">label:String Unique Not Null</text><line style="stroke: #808080; stroke-width: 1.1526639344262295;" x1="34.9641" x2="151.7674" y1="778.0482" y2="778.0482"/><!--class Tag--><rect fill="url(#gd0v6dyo3zhu73)" filter="url(#fd0v6dyo3zhu7)" height="64.4411" id="Tag" rx="5.7633" ry="5.7633" style="stroke: url(#gd0v6dyo3zhu72); stroke-width: 1.1526639344262295;" width="118.3402" x="407.6588" y="1533.5353"/><text fill="#000000" font-family="sans-serif" font-size="9.2213" font-style="italic" lengthAdjust="spacingAndGlyphs" textLength="33.043" x="450.3074" y="1546.95">«entity»</text><text fill="#000000" font-family="sans-serif" font-size="9.2213" lengthAdjust="spacingAndGlyphs" textLength="16.1373" x="458.7602" y="1558.5487">Tag</text><line style="stroke: #808080; stroke-width: 1.1526639344262295;" x1="408.4273" x2="525.2305" y1="1564.4171" y2="1564.4171"/><rect fill="none" height="4.6107" style="stroke: #C82930; stroke-width: 0.7684426229508197;" width="4.6107" x="413.8064" y="1570.5646"/><text fill="#000000" font-family="sans-serif" font-size="8.4529" lengthAdjust="spacingAndGlyphs" textLength="76.0758" x="423.0277" y="1576.2657">id:int auto_increment</text><rect fill="none" height="4.6107" style="stroke: #C82930; stroke-width: 0.7684426229508197;" width="4.6107" x="413.8064" y="1581.1968"/><text fill="#000000" font-family="sans-serif" font-size="8.4529" lengthAdjust="spacingAndGlyphs" textLength="98.3607" x="423.0277" y="1586.8978">label:String Unique Not Null</text><line style="stroke: #808080; stroke-width: 1.1526639344262295;" x1="408.4273" x2="525.2305" y1="1591.8289" y2="1591.8289"/><!--class UserEventParticipant--><rect fill="url(#gd0v6dyo3zhu73)" filter="url(#fd0v6dyo3zhu7)" height="53.809" id="UserEventParticipant" rx="5.7633" ry="5.7633" style="stroke: url(#gd0v6dyo3zhu72); stroke-width: 1.1526639344262295;" width="107.582" x="276.2551" y="523.8017"/><text fill="#000000" font-family="sans-serif" font-size="9.2213" font-style="italic" lengthAdjust="spacingAndGlyphs" textLength="33.043" x="313.5246" y="537.2164">«entity»</text><text fill="#000000" font-family="sans-serif" font-size="9.2213" lengthAdjust="spacingAndGlyphs" textLength="88.3709" x="285.8607" y="548.8151">UserEventParticipant</text><line style="stroke: #808080; stroke-width: 1.1526639344262295;" x1="277.0236" x2="383.0686" y1="554.6835" y2="554.6835"/><rect fill="none" height="4.6107" style="stroke: #C82930; stroke-width: 0.7684426229508197;" width="4.6107" x="282.4027" y="560.831"/><text fill="#000000" font-family="sans-serif" font-size="8.4529" lengthAdjust="spacingAndGlyphs" textLength="87.6025" x="291.624" y="566.5321">validation:Boolean:false</text><line style="stroke: #808080; stroke-width: 1.1526639344262295;" x1="277.0236" x2="383.0686" y1="571.4632" y2="571.4632"/><!--class UserEventOrganisator--><rect fill="url(#gd0v6dyo3zhu73)" filter="url(#fd0v6dyo3zhu7)" height="53.809" id="UserEventOrganisator" rx="5.7633" ry="5.7633" style="stroke: url(#gd0v6dyo3zhu72); stroke-width: 1.1526639344262295;" width="107.582" x="470.6711" y="523.8017"/><text fill="#000000" font-family="sans-serif" font-size="9.2213" font-style="italic" lengthAdjust="spacingAndGlyphs" textLength="33.043" x="507.9406" y="537.2164">«entity»</text><text fill="#000000" font-family="sans-serif" font-size="9.2213" lengthAdjust="spacingAndGlyphs" textLength="93.75" x="477.5871" y="548.8151">UserEventOrganisator</text><line style="stroke: #808080; stroke-width: 1.1526639344262295;" x1="471.4395" x2="577.4846" y1="554.6835" y2="554.6835"/><rect fill="none" height="4.6107" style="stroke: #C82930; stroke-width: 0.7684426229508197;" width="4.6107" x="476.8186" y="560.831"/><text fill="#000000" font-family="sans-serif" font-size="8.4529" lengthAdjust="spacingAndGlyphs" textLength="87.6025" x="486.04" y="566.5321">validation:Boolean:false</text><line style="stroke: #808080; stroke-width: 1.1526639344262295;" x1="471.4395" x2="577.4846" y1="571.4632" y2="571.4632"/><!--class UserLanguage--><rect fill="url(#gd0v6dyo3zhu73)" filter="url(#fd0v6dyo3zhu7)" height="43.1769" id="UserLanguage" rx="5.7633" ry="5.7633" style="stroke: url(#gd0v6dyo3zhu72); stroke-width: 1.1526639344262295;" width="68.3914" x="142.9303" y="433.8939"/><text fill="#000000" font-family="sans-serif" font-size="9.2213" font-style="italic" lengthAdjust="spacingAndGlyphs" textLength="33.043" x="160.6045" y="447.3086">«entity»</text><text fill="#000000" font-family="sans-serif" font-size="9.2213" lengthAdjust="spacingAndGlyphs" textLength="63.7807" x="145.2357" y="458.9073">UserLanguage</text><line style="stroke: #808080; stroke-width: 1.1526639344262295;" x1="143.6988" x2="210.5533" y1="464.7757" y2="464.7757"/><line style="stroke: #808080; stroke-width: 1.1526639344262295;" x1="143.6988" x2="210.5533" y1="470.9233" y2="470.9233"/><!--class TagOrganisation--><rect fill="url(#gd0v6dyo3zhu73)" filter="url(#fd0v6dyo3zhu7)" height="43.1769" id="TagOrganisation" rx="5.7633" ry="5.7633" style="stroke: url(#gd0v6dyo3zhu72); stroke-width: 1.1526639344262295;" width="75.3074" x="495.2613" y="1253.0538"/><text fill="#000000" font-family="sans-serif" font-size="9.2213" font-style="italic" lengthAdjust="spacingAndGlyphs" textLength="33.043" x="516.3934" y="1266.4685">«entity»</text><text fill="#000000" font-family="sans-serif" font-size="9.2213" lengthAdjust="spacingAndGlyphs" textLength="70.6967" x="497.5666" y="1278.0672">TagOrganisation</text><line style="stroke: #808080; stroke-width: 1.1526639344262295;" x1="496.0297" x2="569.8002" y1="1283.9355" y2="1283.9355"/><line style="stroke: #808080; stroke-width: 1.1526639344262295;" x1="496.0297" x2="569.8002" y1="1290.0831" y2="1290.0831"/><!--class UserHobbie--><rect fill="url(#gd0v6dyo3zhu73)" filter="url(#fd0v6dyo3zhu7)" height="43.1769" id="UserHobbie" rx="5.7633" ry="5.7633" style="stroke: url(#gd0v6dyo3zhu72); stroke-width: 1.1526639344262295;" width="56.0963" x="192.8791" y="529.1808"/><text fill="#000000" font-family="sans-serif" font-size="9.2213" font-style="italic" lengthAdjust="spacingAndGlyphs" textLength="33.043" x="204.4057" y="542.5955">«entity»</text><text fill="#000000" font-family="sans-serif" font-size="9.2213" lengthAdjust="spacingAndGlyphs" textLength="51.4857" x="195.1844" y="554.1942">UserHobbie</text><line style="stroke: #808080; stroke-width: 1.1526639344262295;" x1="193.6475" x2="248.207" y1="560.0626" y2="560.0626"/><line style="stroke: #808080; stroke-width: 1.1526639344262295;" x1="193.6475" x2="248.207" y1="566.2101" y2="566.2101"/><!--class UserFriends--><rect fill="url(#gd0v6dyo3zhu73)" filter="url(#fd0v6dyo3zhu7)" height="43.1769" id="UserFriends" rx="5.7633" ry="5.7633" style="stroke: url(#gd0v6dyo3zhu72); stroke-width: 1.1526639344262295;" width="57.6332" x="526.3832" y="109.6111"/><text fill="#000000" font-family="sans-serif" font-size="9.2213" font-style="italic" lengthAdjust="spacingAndGlyphs" textLength="33.043" x="538.6783" y="123.0259">«entity»</text><text fill="#000000" font-family="sans-serif" font-size="9.2213" lengthAdjust="spacingAndGlyphs" textLength="53.0225" x="528.6885" y="134.6245">UserFriends</text><line style="stroke: #808080; stroke-width: 1.1526639344262295;" x1="527.1516" x2="583.248" y1="140.4929" y2="140.4929"/><line style="stroke: #808080; stroke-width: 1.1526639344262295;" x1="527.1516" x2="583.248" y1="146.6405" y2="146.6405"/><ellipse cx="412.2695" cy="550.6972" fill="#000000" rx="1.5369" ry="1.5369" style="stroke: none; stroke-width: 0.7684426229508197;"/><ellipse cx="114.1137" cy="455.4103" fill="#000000" rx="1.5369" ry="1.5369" style="stroke: none; stroke-width: 0.7684426229508197;"/><ellipse cx="164.0625" cy="550.6972" fill="#000000" rx="1.5369" ry="1.5369" style="stroke: none; stroke-width: 0.7684426229508197;"/><ellipse cx="466.8289" cy="1274.5702" fill="#000000" rx="1.5369" ry="1.5369" style="stroke: none; stroke-width: 0.7684426229508197;"/><ellipse cx="442.2387" cy="550.6972" fill="#000000" rx="1.5369" ry="1.5369" style="stroke: none; stroke-width: 0.7684426229508197;"/><ellipse cx="497.5666" cy="131.1275" fill="#000000" rx="1.5369" ry="1.5369" style="stroke: none; stroke-width: 0.7684426229508197;"/><!--link User to apoint18--><path d="M369.2367,227.4825 C369.2367,243.0512 369.2367,259.0041 369.2367,274.0579 C369.2367,274.0579 369.2367,274.0579 369.2367,456.1788 C369.2367,466.9216 407.0587,539.916 411.7861,548.9989 " fill="none" id="User-apoint18" style="stroke: #000000; stroke-width: 0.3073770491803279;"/><text fill="#000000" font-family="sans-serif" font-size="6.1475" lengthAdjust="spacingAndGlyphs" textLength="40.7275" x="370.0051" y="361.126">participate to an</text><text fill="#000000" font-family="sans-serif" font-size="6.1475" lengthAdjust="spacingAndGlyphs" textLength="39.959" x="328.1226" y="239.6607">0..*:participants</text><!--link apoint18 to Event--><path d="M412.2695,552.4954 C412.2695,558.9964 412.2695,595.0671 412.2695,624.4677 C412.2695,624.4677 412.2695,624.4677 412.2695,831.9472 C412.2695,846.5899 416.1824,861.2986 421.9119,874.9869 " fill="none" id="apoint18-&gt;Event" style="stroke: #000000; stroke-width: 0.3073770491803279;"/><polygon fill="#000000" points="423.574,878.8199,423.6414,871.2519,422.0449,875.2951,418.0017,873.6985,423.574,878.8199" style="stroke: #000000; stroke-width: 0.3073770491803279;"/><text fill="#000000" font-family="sans-serif" font-size="6.1475" lengthAdjust="spacingAndGlyphs" textLength="26.127" x="392.2551" y="871.2542">0..*:events</text><!--link User to apoint24--><path d="M296.5451,216.7167 C292.1719,220.4206 287.7034,223.94 283.1711,227.1829 C240.2421,257.8898 174.0523,221.2735 174.0523,274.0579 C174.0523,274.0579 174.0523,274.0579 174.0523,387.0189 C174.0523,415.7664 147.9775,411.8857 129.4826,433.8939 C123.2536,441.3094 116.5943,450.9841 114.6662,453.8196 " fill="none" id="User-apoint24" style="stroke: #000000; stroke-width: 0.3073770491803279;"/><text fill="#000000" font-family="sans-serif" font-size="6.1475" lengthAdjust="spacingAndGlyphs" textLength="17.6742" x="174.8207" y="328.8514">speaks</text><text fill="#000000" font-family="sans-serif" font-size="6.1475" lengthAdjust="spacingAndGlyphs" textLength="37.6537" x="252.7425" y="220.9107">1..*:languages</text><!--link apoint24 to Language--><path d="M113.7533,457.0855 C110.9985,464.1091 93.3658,510.5845 93.3658,549.9288 C93.3658,549.9288 93.3658,549.9288 93.3658,672.8796 C93.3658,686.8114 93.3658,702.1419 93.3658,715.5205 " fill="none" id="apoint24-&gt;Language" style="stroke: #000000; stroke-width: 0.3073770491803279;"/><polygon fill="#000000" points="93.3658,719.6086,96.4395,712.6926,93.3658,715.7664,90.292,712.6926,93.3658,719.6086" style="stroke: #000000; stroke-width: 0.3073770491803279;"/><text fill="#000000" font-family="sans-serif" font-size="6.1475" lengthAdjust="spacingAndGlyphs" textLength="8.4529" x="84.2129" y="712.3127">0..*</text><!--link apoint24 to UserLanguage--><path d="M115.8366,455.4103 C124.8543,455.4103 133.8727,455.4103 142.8904,455.4103 " fill="none" id="apoint24-UserLanguage" style="stroke: #000000; stroke-width: 0.3073770491803279; stroke-dasharray: 7.0,7.0;"/><!--link User to Event--><path d="M442.052,199.9108 C455.0648,209.9697 468.9582,219.5138 482.9662,227.1829 C543.8845,260.541 632.0441,204.606 632.0441,274.0579 C632.0441,274.0579 632.0441,274.0579 632.0441,831.9472 C632.0441,882.3447 578.2024,911.1375 531.9921,926.5694 " fill="none" id="User-&gt;Event" style="stroke: #000000; stroke-width: 0.3073770491803279;"/><polygon fill="#000000" points="528.1145,927.8389,535.6436,928.608,531.766,926.6433,533.7307,922.7657,528.1145,927.8389" style="stroke: #000000; stroke-width: 0.3073770491803279;"/><text fill="#000000" font-family="sans-serif" font-size="6.1475" lengthAdjust="spacingAndGlyphs" textLength="23.8217" x="632.8125" y="553.2367">create en</text><text fill="#000000" font-family="sans-serif" font-size="6.1475" lengthAdjust="spacingAndGlyphs" textLength="20.748" x="447.9012" y="203.1789">1:author</text><text fill="#000000" font-family="sans-serif" font-size="6.1475" lengthAdjust="spacingAndGlyphs" textLength="53.0225" x="534.0134" y="925.265">0..*:eventsAsCreator</text><!--link User to apoint31--><path d="M303.4672,227.1905 C297.6624,242.2597 293.9293,258.1357 293.9293,274.0579 C293.9293,274.0579 293.9293,274.0579 293.9293,456.1788 C293.9293,515.2797 221.1847,481.9754 179.4314,523.8017 C171.252,531.9933 165.7807,545.4026 164.4037,549.0066 " fill="none" id="User-apoint31" style="stroke: #000000; stroke-width: 0.3073770491803279;"/><text fill="#000000" font-family="sans-serif" font-size="6.1475" lengthAdjust="spacingAndGlyphs" textLength="11.5266" x="294.6977" y="361.126">have</text><text fill="#000000" font-family="sans-serif" font-size="6.1475" lengthAdjust="spacingAndGlyphs" textLength="29.9693" x="268.577" y="239.6642">0..*:hobbies</text><!--link apoint31 to Hobbie--><path d="M164.4752,552.2571 C168.0246,559.0886 193.2633,608.2228 193.2633,624.4677 C193.2633,624.4677 193.2633,624.4677 193.2633,831.9472 C193.2633,856.9085 193.2633,885.0481 193.2633,906.6537 " fill="none" id="apoint31-&gt;Hobbie" style="stroke: #000000; stroke-width: 0.3073770491803279;"/><polygon fill="#000000" points="193.2633,910.6096,196.3371,903.6936,193.2633,906.7674,190.1895,903.6936,193.2633,910.6096" style="stroke: #000000; stroke-width: 0.3073770491803279;"/><text fill="#000000" font-family="sans-serif" font-size="6.1475" lengthAdjust="spacingAndGlyphs" textLength="8.4529" x="184.1104" y="903.3209">0..*</text><!--link apoint31 to UserHobbie--><path d="M165.6171,550.6972 C174.6916,550.6972 183.7661,550.6972 192.8399,550.6972 " fill="none" id="apoint31-UserHobbie" style="stroke: #000000; stroke-width: 0.3073770491803279; stroke-dasharray: 7.0,7.0;"/><!--link Event to apoint37--><path d="M466.8289,1007.315 C466.8289,1022.6124 466.8289,1038.9034 466.8289,1054.0271 C466.8289,1054.0271 466.8289,1054.0271 466.8289,1206.1788 C466.8289,1233.4154 466.8289,1266.8235 466.8289,1272.8481 " fill="none" id="Event-apoint37" style="stroke: #000000; stroke-width: 0.3073770491803279;"/><text fill="#000000" font-family="sans-serif" font-size="6.1475" lengthAdjust="spacingAndGlyphs" textLength="21.5164" x="467.5973" y="1132.6424">contains</text><text fill="#000000" font-family="sans-serif" font-size="6.1475" lengthAdjust="spacingAndGlyphs" textLength="21.5164" x="444.388" y="1019.5613">0..*:tags</text><!--link apoint37 to Tag--><path d="M466.8289,1276.2922 C466.8289,1282.3168 466.8289,1315.7249 466.8289,1342.9615 C466.8289,1342.9615 466.8289,1342.9615 466.8289,1486.6603 C466.8289,1500.5953 466.8289,1515.9241 466.8289,1529.3021 " fill="none" id="apoint37-&gt;Tag" style="stroke: #000000; stroke-width: 0.3073770491803279;"/><polygon fill="#000000" points="466.8289,1533.3875,469.9027,1526.4715,466.8289,1529.5453,463.7551,1526.4715,466.8289,1533.3875" style="stroke: #000000; stroke-width: 0.3073770491803279;"/><text fill="#000000" font-family="sans-serif" font-size="6.1475" lengthAdjust="spacingAndGlyphs" textLength="8.4529" x="457.676" y="1526.0913">0..*</text><!--link apoint37 to TagOrganisation--><path d="M468.3781,1274.5702 C477.2851,1274.5702 486.1929,1274.5702 495.0999,1274.5702 " fill="none" id="apoint37-TagOrganisation" style="stroke: #000000; stroke-width: 0.3073770491803279; stroke-dasharray: 7.0,7.0;"/><!--link User to apoint43--><path d="M432.9191,227.1829 C438.5879,242.2828 442.2387,258.1741 442.2387,274.0579 C442.2387,274.0579 442.2387,274.0579 442.2387,456.1788 C442.2387,494.5932 442.2387,541.8524 442.2387,549.0066 " fill="none" id="User-apoint43" style="stroke: #000000; stroke-width: 0.3073770491803279;"/><text fill="#000000" font-family="sans-serif" font-size="6.1475" lengthAdjust="spacingAndGlyphs" textLength="27.6639" x="443.0072" y="361.126">organise a</text><text fill="#000000" font-family="sans-serif" font-size="6.1475" lengthAdjust="spacingAndGlyphs" textLength="43.0328" x="392.4558" y="239.6561">0..*:organisators</text><!--link apoint43 to Event--><path d="M442.8466,552.4493 C446.6335,558.6967 466.8289,593.438 466.8289,624.4677 C466.8289,624.4677 466.8289,624.4677 466.8289,831.9472 C466.8289,845.7715 466.8289,860.5709 466.8289,874.6949 " fill="none" id="apoint43-&gt;Event" style="stroke: #000000; stroke-width: 0.3073770491803279;"/><polygon fill="#000000" points="466.8289,878.6593,469.9027,871.7433,466.8289,874.8171,463.7551,871.7433,466.8289,878.6593" style="stroke: #000000; stroke-width: 0.3073770491803279;"/><text fill="#000000" font-family="sans-serif" font-size="6.1475" lengthAdjust="spacingAndGlyphs" textLength="64.5492" x="469.7033" y="871.2916">0..*:eventsAsOrganisator</text><!--link UserEventParticipant to apoint18--><path d="M384.0054,550.6972 C392.9116,550.6972 401.8179,550.6972 410.7241,550.6972 " fill="none" id="UserEventParticipant-apoint18" style="stroke: #000000; stroke-width: 0.3073770491803279; stroke-dasharray: 7.0,7.0;"/><!--link apoint43 to UserEventOrganisator--><path d="M443.8448,550.6972 C452.7672,550.6972 461.6895,550.6972 470.6119,550.6972 " fill="none" id="apoint43-UserEventOrganisator" style="stroke: #000000; stroke-width: 0.3073770491803279; stroke-dasharray: 7.0,7.0;"/><!--link apoint18 to apoint43--><!--link User to apoint51--><path d="M442.0259,131.1275 C466.4647,131.1275 489.2029,131.1275 495.7123,131.1275 " fill="none" id="User-apoint51" style="stroke: #000000; stroke-width: 0.3073770491803279;"/><text fill="#000000" font-family="sans-serif" font-size="6.1475" lengthAdjust="spacingAndGlyphs" textLength="26.127" x="455.8786" y="126.751">friend with</text><text fill="#000000" font-family="sans-serif" font-size="6.1475" lengthAdjust="spacingAndGlyphs" textLength="27.6639" x="448.1164" y="137.784">0..*:friends</text><!--link apoint51 to User--><path d="M495.7362,131.4119 C492.2766,131.9421 484.5369,133.0486 477.9713,133.4329 C467.6465,134.0399 456.7631,134.2781 446.031,134.2858 " fill="none" id="apoint51-&gt;User" style="stroke: #000000; stroke-width: 0.3073770491803279;"/><polygon fill="#000000" points="442.0858,134.2781,448.9956,137.3657,445.928,134.2858,449.0079,131.2182,442.0858,134.2781" style="stroke: #000000; stroke-width: 0.3073770491803279;"/><text fill="#000000" font-family="sans-serif" font-size="6.1475" lengthAdjust="spacingAndGlyphs" textLength="9.9898" x="448.0457" y="132.9275">0..*:</text><!--link apoint51 to UserFriends--><path d="M499.1427,131.1275 C508.1934,131.1275 517.2441,131.1275 526.2956,131.1275 " fill="none" id="apoint51-UserFriends" style="stroke: #000000; stroke-width: 0.3073770491803279;"/><rect fill="#EEEEFF" height="21.2162" rx="3.8422" ry="3.8422" style="stroke: #000000; stroke-width: 0.7684426229508197;" width="361.168" x="194.0318" y="1611.9165"/><text fill="#000000" font-family="sans-serif" font-size="10.7582" lengthAdjust="spacingAndGlyphs" textLength="351.9467" x="198.6424" y="1626.9266">toutes les classes avec le stereotype entity héritent d'EntityBase . RB/CE</text><!--
@startuml OVG - - V4.0

scale 750 width

skinparam RoundCorner 15

skinparam title {
    BorderRoundCorner 100
    BorderThickness 2
    BorderColor Aqua-CadetBlue
    BackgroundColor Aqua-CadetBlue
}

skinparam LegendBackgroundColor #EEF

skinparam class {
    BackgroundColor LightYellow-White
    BackgroundColor<<entity>> LightYellow-Orange
    BorderColor Gray-Silver
}

skinparam arrow {
    Color Black
    FontSize 8
    Thickness 0.4
}

hide class circle

title: On Va Geeker V4.0 


abstract class EntityBase {
    -id: int {PK}
    -createdAt: DateTime = NOW
	-updatedAt: DateTime = NOW
	-enable:Boolean

	
}


	
	

	
class Event<<entity>> {
	- <b>title</b>:String Not Null
	- <b>description</b>:String Not Null
	- <b>dueAt</b>:Date Not Null
	- <b>nbPlace</b>:Integer Not Null
	- photo:String 
	- adress:String
	- Cp:Integer
	- <b>city</b>:String Not Null

}

legend
    toutes les classes avec le stereotype entity héritent d'EntityBase . RB/CE
end legend

class User<<entity>>{
	- <b>username</b>:String Unique Not Null
	- <b>password</b>:String Not Null
	- name:String
	- email:String
	- sex:Byte
	- picture:String
	- maritalStatus:String
	- birthDate:LocalDate
	- <b>city</b>:String NOT NULL
	- description:String
	- subscriptionDate:LocalDate
	- lastConnectionDate:LocalDate
	- profession:String
	- role:String
}
note left of User
  *La description contient au maximum 5 000 caractères
end note
class Hobbie <<entity>> {
		- id:int auto_increment 
		- label:String Unique Not Null
}

class Language<<entity>>{
  {field} -id:int auto_increment
  {field} -label:String Unique Not Null  
} 

class Tag<<entity>>{
  {field} -id:int auto_increment
  {field} -label:String Unique Not Null  
}
class UserEventParticipant<<entity>> {
	- validation:Boolean:false
}
class UserEventOrganisator<<entity>> {
	- validation:Boolean:false
}
class UserLanguage<<entity>> {
}
class TagOrganisation<<entity>> {
}
class UserHobbie<<entity>> {
}
class UserFriends<<entity>> {
}

User "0..*:participants" - - - - - -> "0..*:events" Event: participate to an
(User, Event) .. UserEventParticipant

User "1..*:languages"- - - - -> "0..*" Language: speaks
(User, Language) .. UserLanguage

User "1:author" - - - - - -> "0..*:eventsAsCreator" Event: create en
User "0..*:hobbies" - - - - - -> "0..*" Hobbie: have
(User, Hobbie) .. UserHobbie

Event "0..*:tags"- - - - - -> "0..*" Tag: contains
(Event, Tag) .. TagOrganisation

User "0..*:organisators" - - - - - -> "0..*:eventsAsOrganisator" Event: organise a
(User, Event) .. UserEventOrganisator

User "0..*:friends" -> "0..*:" User:  friend with
(User, User) - - UserFriends

@enduml

PlantUML version 1.2019.09(Mon Aug 26 18:19:51 CEST 2019)
(GPL source distribution)
Java Runtime: OpenJDK Runtime Environment
JVM: OpenJDK 64-Bit Server VM
Java Version: 13.0.1+9
Operating System: Windows 10
OS Version: 10.0
Default Encoding: Cp1252
Language: fr
Country: FR
--></g></svg>